<?xml version="1.0" encoding="UTF-8"?> <svg xmlns="http://www.w3.org/2000/svg" width="534" height="89" viewBox="0 0 534 89" fill="none"> <path d="M134.92 43.6344C131.8 39.7804 125.81 37.4844 120.07 37.4844C108.51 37.4844 99 45.5204 99 58.3124C99 71.4324 108.68 79.1404 120.32 79.1404C126.14 79.1404 131.55 77.1724 134.83 73.6464L128.68 67.4144C126.8 69.7104 123.44 70.9404 120.4 70.9404C112.94 70.9404 109.25 64.4624 109.25 58.3124C109.25 52.1624 112.86 45.6844 120.07 45.6844C123.27 45.6844 126.63 47.3244 128.19 49.5384L134.92 43.6344Z" fill="black"></path> <path d="M140.34 77.9924H150.18V56.9184C150.18 54.0484 151.9 46.3404 160.75 46.3404C161.66 46.3404 162.48 46.4224 163.79 46.7504V37.7304C163.13 37.5664 162.15 37.4844 161.41 37.4844C156.24 37.4844 152.06 40.6824 149.93 45.1924H149.77V38.6324H140.34V77.9924Z" fill="black"></path> <path d="M175.311 54.3764C175.721 48.8824 180.391 44.8644 186.211 44.8644C192.611 44.8644 195.481 49.2924 195.481 54.3764H175.311ZM205.321 58.8044C205.321 44.6184 197.281 37.4844 186.291 37.4844C174.401 37.4844 165.471 45.8484 165.471 58.5584C165.471 71.3504 174.491 79.1404 186.621 79.1404C194.081 79.1404 199.661 76.5164 203.511 71.2684L196.951 66.0204C194.741 69.1364 191.461 71.1044 186.541 71.1044C180.801 71.1044 175.721 67.0044 175.311 61.4284H205.241C205.321 60.5264 205.321 59.7064 205.321 58.8044Z" fill="black"></path> <path d="M252.861 16H243.021V43.634H242.781C240.731 41.092 236.791 37.484 229.581 37.484C218.341 37.484 210.471 46.504 210.471 58.148C210.471 69.628 217.851 79.14 229.821 79.14C235.321 79.14 240.651 76.598 243.351 72.088H243.521V77.992H252.861V16ZM220.471 58.148C220.471 51.998 224.161 45.52 231.791 45.52C239.011 45.52 243.351 52.162 243.351 58.312C243.351 64.462 239.011 70.94 231.791 70.94C224.161 70.94 220.471 64.298 220.471 58.148Z" fill="black"></path> <path d="M262.98 77.9923H272.82V38.6323H262.98V77.9923ZM261.59 25.2663C261.59 28.3823 264.21 31.1703 267.82 31.1703C271.43 31.1703 274.22 28.6283 274.22 25.2663C274.22 21.9043 271.43 19.3623 267.82 19.3623C264.21 19.3623 261.59 22.1503 261.59 25.2663Z" fill="black"></path> <path d="M286.99 46.5044V64.8724C286.99 72.4164 289.37 78.8124 299.78 78.8124C302 78.8124 304.62 78.4024 306.34 77.7464L306.01 70.0384C304.87 70.6124 303.14 70.8584 301.83 70.8584C297.49 70.8584 296.67 68.3164 296.67 64.7904V46.5044H306.51V38.6324H296.67V27.2344H286.99V38.6324H280.1V46.5044H286.99Z" fill="black"></path> <path d="M313.789 77.992H323.629V57.82H323.879L339.459 77.992H352.499L334.369 56.426L351.429 38.632H338.799L323.879 55.196H323.629V16H313.789V77.992Z" fill="black"></path> <path d="M381.111 77.9924H390.291V54.0484C390.291 46.1764 386.851 37.4844 372.741 37.4844C366.761 37.4844 360.521 39.6164 356.101 43.7164L361.181 49.7024C363.721 47.1604 367.741 45.1924 371.921 45.1924C376.841 45.1924 380.941 47.5704 380.941 52.4084V53.3924C368.641 53.3924 353.881 55.0324 353.881 66.7584C353.881 75.9424 362.331 78.9764 368.641 78.9764C374.221 78.9764 378.891 76.4344 380.861 72.9904H381.111V77.9924ZM380.941 61.4284C380.941 67.6604 377.331 71.5144 370.611 71.5144C367.251 71.5144 363.721 70.3664 363.721 66.5944C363.721 60.7724 372.501 60.0344 378.731 60.0344H380.941V61.4284Z" fill="black"></path> <path d="M398.75 77.9924H408.59V56.9184C408.59 54.0484 410.32 46.3404 419.17 46.3404C420.07 46.3404 420.89 46.4224 422.21 46.7504V37.7304C421.55 37.5664 420.57 37.4844 419.83 37.4844C414.66 37.4844 410.48 40.6824 408.35 45.1924H408.18V38.6324H398.75V77.9924Z" fill="black"></path> <path d="M476.609 37.4844C470.709 37.4844 466.279 40.1904 463.649 44.9464C461.439 40.5184 457.419 37.4844 451.349 37.4844C445.039 37.4844 440.859 41.0924 439.139 44.9464H438.969V38.6324H429.619V77.9924H439.459V56.3444C439.459 51.0964 442.169 45.6844 448.069 45.6844C453.079 45.6844 455.369 49.3744 455.369 54.2124V77.9924H465.209V56.5084C465.209 51.4244 467.749 45.6844 473.899 45.6844C480.219 45.6844 481.279 51.5064 481.279 56.1804V77.9924H491.119V53.3924C491.119 45.3564 486.859 37.4844 476.609 37.4844Z" fill="black"></path> <path d="M524.009 77.9924H533.199V54.0484C533.199 46.1764 529.749 37.4844 515.649 37.4844C509.659 37.4844 503.429 39.6164 498.999 43.7164L504.089 49.7024C506.629 47.1604 510.649 45.1924 514.829 45.1924C519.749 45.1924 523.849 47.5704 523.849 52.4084V53.3924C511.549 53.3924 496.789 55.0324 496.789 66.7584C496.789 75.9424 505.229 78.9764 511.549 78.9764C517.119 78.9764 521.799 76.4344 523.769 72.9904H524.009V77.9924ZM523.849 61.4284C523.849 67.6604 520.239 71.5144 513.519 71.5144C510.149 71.5144 506.629 70.3664 506.629 66.5944C506.629 60.7724 515.399 60.0344 521.629 60.0344H523.849V61.4284Z" fill="black"></path> <path d="M44.05 88.1C68.3801 88.1 88.1 68.3781 88.1 44.05C88.1 19.7219 68.3801 0 44.05 0C19.72 0 0 19.7219 0 44.05C0 68.3781 19.72 88.1 44.05 88.1Z" fill="#008600"></path> <path d="M21.83 48.4656C21.83 40.8863 25.48 36.9924 31.36 36.9924C35.74 36.9924 38.4501 38.696 39.4301 39.1828C40.1601 38.4527 40.64 37.2358 40.64 36.0189C40.64 33.8286 38.21 31.6383 31.12 31.6383C22.81 31.6383 15.75 37.4792 15.75 48.4656C15.75 59.452 22.11 65.2929 30.39 65.2929C35.5 65.2929 39.43 63.5893 40.64 63.1026V57.0183C39.43 57.9918 35.29 59.9388 31.36 59.9388C26.01 59.9388 21.83 56.0448 21.83 48.4656ZM62.34 48.2222C65.99 43.8415 69.43 38.696 71.86 32.125L66.51 30.1781C63.1 39.4609 57.96 45.7885 51.87 50.9341V18.9482H46.03V64.5976H51.87V57.7484C54.06 56.0448 56.01 54.3413 58.23 52.3943L63.59 61.6771C64.81 63.8675 66.7501 65.0843 69.4301 65.0843C70.8901 65.0843 71.86 64.5976 72.11 64.3542L62.34 48.257V48.2222Z" fill="white"></path> </svg> 