<?xml version="1.0" encoding="UTF-8"?> <svg xmlns="http://www.w3.org/2000/svg" width="100" height="20" viewBox="0 0 100 20" fill="none"> <path d="M10 20C15.5 20 20 15.5 20 10C20 4.5 15.5 0 10 0C4.44444 0 0 4.5 0 10C0 15.5556 4.44444 20 10 20Z" fill="#FFDF10"></path> <path d="M12.9445 9.61112C13.0556 9.61112 13.1667 9.61112 13.2223 9.61112C13.2778 9.50001 13.2778 9.27779 13.2223 9.05557C13.1667 8.72223 13.0556 8.50001 12.8889 8.55557C12.6667 8.61112 12.6667 8.83334 12.7778 9.16668C12.8334 9.33334 12.8889 9.50001 12.9445 9.61112Z" fill="black"></path> <path d="M11.2776 9.88889C11.4443 9.94445 11.4999 10 11.5554 9.94445C11.5554 9.94445 11.5554 9.88889 11.5554 9.83334C11.4999 9.72222 11.3332 9.61111 11.1665 9.55556C10.8332 9.44445 10.4999 9.44445 10.2221 9.66667C10.111 9.72223 10.0554 9.83334 10.0554 9.88889C10.0554 9.88889 10.0554 9.94445 10.111 9.94445C10.1665 9.94445 10.4443 9.83334 10.7776 9.77778C10.9443 9.77778 11.1665 9.83334 11.2776 9.88889Z" fill="black"></path> <path d="M10.9999 10.0556C10.8332 10.1111 10.7221 10.1667 10.6665 10.2222C10.611 10.2778 10.5554 10.3334 10.5554 10.3334V10.3889C10.5554 10.3889 10.5554 10.3889 10.611 10.3889C10.6665 10.3889 10.7221 10.3334 10.7221 10.3334C10.9999 10.2222 11.1665 10.2778 11.3332 10.2778C11.4443 10.2778 11.4443 10.2778 11.4999 10.2778V10.2222C11.4443 10.1111 11.2776 10 10.9999 10.0556Z" fill="black"></path> <path d="M12.3888 10.6111C12.4999 10.6667 12.6666 10.6667 12.6666 10.5555C12.7221 10.4444 12.6666 10.3333 12.4999 10.2778C12.3888 10.2222 12.2221 10.2222 12.2221 10.3333C12.2221 10.4444 12.2777 10.5555 12.3888 10.6111Z" fill="black"></path> <path d="M13.1665 9.94446C13.0554 9.94446 12.9998 10.0556 12.9998 10.1667C12.9998 10.2778 13.0554 10.4445 13.1665 10.4445C13.2776 10.4445 13.3332 10.3333 13.3332 10.2222C13.3887 10.0556 13.2776 9.94446 13.1665 9.94446Z" fill="black"></path> <path d="M6.44432 12.4445C6.44432 12.3889 6.38876 12.4445 6.33321 12.4445C6.33321 12.4445 6.27765 12.4445 6.2221 12.4445C6.16654 12.4445 6.11099 12.3889 6.05543 12.3333C5.99988 12.2778 5.99988 12.1667 6.05543 12.0556V12C6.11099 11.8333 6.27765 11.5 6.11099 11.2222C5.99988 11 5.83321 10.8889 5.61099 10.8333C5.38876 10.8333 5.16654 10.8889 5.05543 11.0556C4.83321 11.2778 4.77765 11.6111 4.83321 11.7778C4.83321 11.8333 4.88876 11.8333 4.88876 11.8333C4.94432 11.8333 4.99988 11.8333 4.99988 11.7222C4.99988 11.7222 4.99988 11.7222 4.99988 11.6667C4.99988 11.6111 5.05543 11.5 5.11099 11.4445C5.16654 11.3333 5.27765 11.2778 5.38876 11.2778C5.49988 11.2778 5.61099 11.2778 5.7221 11.3333C5.88876 11.4445 5.94432 11.6111 5.88876 11.8333C5.83321 11.9445 5.77765 12.1111 5.83321 12.2778C5.83321 12.5556 6.05543 12.7222 6.2221 12.7222C6.38876 12.7222 6.49988 12.6111 6.49988 12.5556C6.44432 12.4445 6.44432 12.4445 6.44432 12.4445Z" fill="black"></path> <path d="M15.7223 11.8889C15.7223 11.8889 15.6667 11.7222 15.6112 11.5556C15.5556 11.3889 15.5001 11.2778 15.5001 11.2778C15.7223 10.9445 15.7223 10.6667 15.7223 10.5C15.6667 10.2778 15.6112 10.1111 15.4445 9.94446C15.2779 9.77779 14.889 9.55557 14.4445 9.44446C14.389 9.44446 14.2223 9.3889 14.1667 9.3889C14.1667 9.3889 14.1667 8.77779 14.1667 8.50001C14.1667 8.33335 14.1667 8.00001 14.0556 7.72224C13.9445 7.33335 13.7779 7.00001 13.5001 6.77779C14.1667 6.11113 14.5556 5.33335 14.5556 4.72224C14.5556 3.50001 13.0556 3.11113 11.1667 3.8889L10.7779 4.05557L10.0556 3.33335C7.88896 1.44446 1.27785 8.77779 3.38896 10.5556L3.88896 10.9445C3.77785 11.2778 3.7223 11.6111 3.77785 12C3.83341 12.5 4.05563 12.9445 4.50007 13.3333C4.88896 13.6667 5.38896 13.8889 5.88896 13.8889C6.7223 15.7778 8.61119 16.9445 10.7779 17C13.1667 17.0556 15.1112 15.9445 15.9445 13.9445C16.0001 13.7778 16.2223 13.1667 16.2223 12.6111C16.2223 12.1111 15.9445 11.8889 15.7223 11.8889ZM6.05563 13.3889C6.00007 13.3889 5.88896 13.3889 5.83341 13.3889C5.11119 13.3889 4.33341 12.7222 4.27785 11.9445C4.16674 11.1111 4.61119 10.4445 5.38896 10.2778C5.50007 10.2778 5.61119 10.2222 5.7223 10.2778C6.16674 10.2778 6.77785 10.6111 6.94452 11.5556C7.00007 12.3889 6.83341 13.2222 6.05563 13.3889ZM5.2223 9.83335C4.7223 9.94446 4.33341 10.2222 4.05563 10.5556C3.88896 10.4445 3.61119 10.1667 3.55563 10.1111C3.16674 9.33335 4.00007 7.83335 4.61119 7.00001C6.11119 4.8889 8.38896 3.27779 9.44452 3.61113C9.61119 3.66668 10.1667 4.33335 10.1667 4.33335C10.1667 4.33335 9.11119 4.94446 8.11119 5.77779C6.83341 6.66668 5.83341 8.16668 5.2223 9.83335ZM12.7223 13.0556C12.7779 13.0556 12.7779 13.0556 12.7223 13.0556C12.7223 13 12.7223 13 12.7223 13C12.7223 13 11.6112 13.1667 10.5556 12.7778C10.6667 12.3889 11.0001 12.5556 11.4445 12.5556C12.2779 12.6111 13.0001 12.5 13.5556 12.3333C14.0556 12.2222 14.6667 11.9445 15.1667 11.5556C15.3334 11.9445 15.389 12.3333 15.389 12.3333C15.389 12.3333 15.5001 12.3333 15.6112 12.3889C15.7223 12.4445 15.7779 12.5556 15.7223 12.8889C15.6112 13.5 15.3334 14 14.889 14.5C14.6112 14.7778 14.2779 15.0556 13.889 15.2222C13.6667 15.3333 13.5001 15.4445 13.2779 15.5C11.6112 16.0556 9.88896 15.4445 9.33341 14.1667C9.27785 14.0556 9.27785 13.9445 9.2223 13.8889C9.00007 13.0556 9.16674 12 9.83341 11.3889C9.88896 11.3333 9.88896 11.2778 9.88896 11.2222C9.88896 11.1667 9.83341 11.1111 9.83341 11.0556C9.61119 10.7222 8.83341 10.2222 9.00007 9.16668C9.11119 8.3889 9.77785 7.8889 10.389 7.8889C10.4445 7.8889 10.5001 7.8889 10.5556 7.8889C10.8334 7.8889 11.0556 7.94446 11.2779 7.94446C11.6667 7.94446 12.0001 7.8889 12.389 7.55557C12.5001 7.44446 12.6112 7.33335 12.7779 7.33335C12.7779 7.33335 12.8334 7.33335 12.9445 7.33335C13.0556 7.33335 13.1112 7.3889 13.2223 7.44446C13.5556 7.66668 13.5556 8.16668 13.6112 8.50001C13.6112 8.72224 13.6667 9.22224 13.6667 9.3889C13.6667 9.72224 13.7779 9.77779 13.9445 9.83335C14.0556 9.8889 14.1112 9.8889 14.2779 9.94446C14.6667 10.0556 14.9445 10.1667 15.1112 10.3333C15.2223 10.4445 15.2223 10.5556 15.2779 10.6111C15.3334 10.9445 15.0001 11.3889 14.1667 11.8333C13.2223 12.2778 12.1112 12.3889 11.2779 12.2778C11.2223 12.2778 11.0001 12.2222 11.0001 12.2222C10.389 12.1111 10.0001 12.9445 10.389 13.5C10.6112 13.8333 11.2779 14.1111 11.9445 14.1111C13.4445 14.1111 14.6667 13.4445 15.0556 12.8889C15.0556 12.8889 15.0556 12.8889 15.1112 12.8333C15.1112 12.7778 15.1112 12.7778 15.1112 12.7778C14.7779 13 13.1667 14 11.5001 13.7222C11.5001 13.7222 11.2779 13.6667 11.1112 13.6111C10.9445 13.5556 10.6667 13.3889 10.6112 13.1111C11.889 13.4445 12.7223 13.0556 12.7223 13.0556ZM7.94452 6.94446C8.44452 6.33335 9.11119 5.83335 9.66674 5.50001C9.66674 5.50001 9.7223 5.50001 9.7223 5.55557C9.66674 5.61113 9.61119 5.83335 9.55563 5.94446C9.55563 5.94446 9.55563 6.00001 9.61119 5.94446C9.94452 5.72224 10.6112 5.44446 11.1667 5.3889C11.1667 5.3889 11.2223 5.44446 11.1667 5.44446C11.0556 5.50001 11.0001 5.61113 10.9445 5.66668V5.72224C11.3334 5.72224 11.889 5.83335 12.2223 6.05557V6.11113C11.6667 6.00001 10.8334 5.8889 9.88896 6.11113C9.05563 6.33335 8.44452 6.61113 7.94452 6.94446C8.00007 7.00001 7.94452 6.94446 7.94452 6.94446Z" fill="black"></path> <path d="M59.2849 9.74093C59.8548 9.74093 60.5802 10.0518 60.8911 10.4145L62.3419 9.01554C61.6683 8.29015 60.5284 7.87564 59.3367 7.87564C56.8496 7.87564 55.0362 9.6373 55.0362 12.1243C55.0362 14.6114 56.7978 16.3731 59.3885 16.3731C60.5802 16.3731 61.7201 16.0104 62.3937 15.285L60.9947 13.7824C60.6838 14.1969 60.0103 14.456 59.3885 14.456C58.0413 14.456 57.3678 13.2642 57.3678 12.0725C57.316 10.8808 58.0413 9.74093 59.2849 9.74093Z" fill="black"></path> <path d="M68.2486 7.82384C67.1605 7.82384 66.2797 8.49742 65.8652 9.06737H65.8133V3.62695H63.5854V16.0622H65.8133V11.7099C65.8133 10.7772 66.3315 9.79276 67.4714 9.79276C68.3522 9.79276 68.8703 10.4145 68.8703 11.7099V16.114H71.202V11.1399C71.2538 9.5855 70.4766 7.82384 68.2486 7.82384Z" fill="black"></path> <path d="M87.4196 11.7617V16.1658H89.6476V11.1917C89.6476 9.68912 88.9222 7.92746 86.6942 7.92746C85.6061 7.92746 84.7771 8.49741 84.2072 9.37824C83.8445 8.70466 83.0155 7.92746 81.7201 7.92746C80.632 7.92746 79.6994 8.75647 79.2849 9.37824H79.2331V8.13471H77.1087V16.1658H79.3367V11.7617C79.3367 10.7772 79.8548 9.79274 80.9429 9.79274C82.1346 9.79274 82.2901 10.8808 82.2901 11.3471V16.1658H84.5181V11.8135C84.5181 10.829 85.088 9.84456 86.1761 9.84456C87.1087 9.84456 87.4196 10.7254 87.4196 11.7617Z" fill="black"></path> <path d="M34.3626 11.658V16.0622H36.5906V11.0881C36.5906 9.58548 35.8652 7.82382 33.6372 7.82382C32.5492 7.82382 31.7201 8.39377 31.1502 9.2746C30.7875 8.60102 29.9585 7.82382 28.6632 7.82382C27.5751 7.82382 26.6424 8.65284 26.2279 9.2746H26.1761V8.03108H23.9999V16.0622H26.2279V11.658C26.2279 10.6736 26.7461 9.68911 27.8341 9.68911C29.0258 9.68911 29.1813 10.7772 29.1813 11.2435V16.0622H31.4093V11.7098C31.4093 10.7254 31.9792 9.74092 33.0673 9.74092C34.1036 9.74092 34.3626 10.6217 34.3626 11.658Z" fill="black"></path> <path d="M41.6683 7.82382C40.373 7.82382 39.0776 8.34196 38.2486 9.11916L39.3885 10.4145C39.9066 9.89636 40.7875 9.58548 41.5129 9.58548C42.2901 9.58548 43.1191 9.99999 43.1191 10.9326V11.0881C40.7875 11.0881 37.8341 11.399 37.8341 13.7824C37.8341 15.544 39.3367 16.3212 40.8911 16.3212C41.8237 16.3212 42.6528 15.8031 43.1709 15.1813V16.114H45.2434V11.2435C45.2434 9.94817 44.7771 7.82382 41.6683 7.82382ZM41.2538 14.6114C40.7875 14.6114 40.0103 14.4559 40.0103 13.7306C40.0103 12.9534 40.9947 12.487 42.86 12.487H43.1709V12.6425C43.1191 13.8342 42.4455 14.6114 41.2538 14.6114Z" fill="black"></path> <path d="M74.0517 4.1969C73.3264 4.1969 72.7046 4.76685 72.7046 5.49224C72.7046 6.21762 73.3264 6.78757 74.0517 6.78757C74.8289 6.78757 75.4507 6.21762 75.4507 5.49224C75.4507 4.71503 74.8289 4.1969 74.0517 4.1969Z" fill="black"></path> <path d="M75.1916 8.0311H72.9637V16.0622H75.1916V8.0311Z" fill="black"></path> <path d="M48.1969 4.1969C47.4715 4.1969 46.8497 4.76685 46.8497 5.49224C46.8497 6.21762 47.4715 6.78757 48.1969 6.78757C48.9741 6.78757 49.5958 6.21762 49.5958 5.49224C49.5958 4.71503 48.9741 4.1969 48.1969 4.1969Z" fill="black"></path> <path d="M49.3369 8.0311H47.1089V16.0622H49.3369V8.0311Z" fill="black"></path> <path d="M53.5336 3.62695H51.3056V16.0622H53.5336V3.62695Z" fill="black"></path> <path d="M95.3989 9.68911C96.8497 9.68911 97.5233 10.8808 97.5233 12.0207C97.5233 13.2124 96.7461 14.4041 95.3989 14.4041C94.0518 14.4041 93.2746 13.2124 93.2746 12.0725C93.2746 10.9326 94.0518 9.68911 95.3989 9.68911ZM95.8134 7.82382C94.4145 7.82382 93.5854 8.70465 93.2746 9.06735H93.2227V8.03108H91.0984V20H93.3264V15.0777H93.3782C93.9481 15.6995 94.9326 16.2694 95.9689 16.2694C98.2486 16.2694 99.8549 14.4559 99.8549 12.0207C99.803 9.58548 98.0932 7.82382 95.8134 7.82382Z" fill="black"></path> </svg> 