<?xml version="1.0" encoding="UTF-8"?> <!-- Generator: Adobe Illustrator 26.4.1, SVG Export Plug-In . SVG Version: 6.00 Build 0) --> <svg xmlns="http://www.w3.org/2000/svg" xmlns:xlink="http://www.w3.org/1999/xlink" id="Layer_1" x="0px" y="0px" width="102px" height="30px" viewBox="0 0 102 30" style="enable-background:new 0 0 102 30;" xml:space="preserve"> <style type="text/css"> .st0{fill:#236CFF;} </style> <path class="st0" d="M52.3,20.6c0,5.1,4.1,8.9,9.3,8.9c5.2,0,9.3-3.7,9.3-8.9V8.9h-5V20c0,2.8-1.8,4.6-4.3,4.6 c-2.4,0-4.3-1.9-4.3-4.6V8.9h-5L52.3,20.6z"></path> <path class="st0" d="M84.4,13.6h6v15.5h5V13.6h6V8.9H84.4V13.6z"></path> <path class="st0" d="M81.2,8.9h-5v20.2h5V8.9z"></path> <path class="st0" d="M32,13.6h6v15.5h5V13.6h6V8.9H32V13.6z"></path> <path class="st0" d="M5.5,8.9h-5v20.2h5V19V8.9z"></path> <path class="st0" d="M29.3,17.4c0-5.1-4.1-8.9-9.3-8.9s-9.3,3.7-9.3,8.9v11.8h5V18c0-2.8,1.8-4.6,4.3-4.6c2.4,0,4.3,1.9,4.3,4.6 v11.1h5L29.3,17.4z"></path> </svg> 