<?xml version="1.0" encoding="UTF-8"?> <svg xmlns="http://www.w3.org/2000/svg" width="30" height="29" viewBox="0 0 30 29" fill="none"> <path d="M15 28.7021C23.2843 28.7021 30 22.4786 30 14.8015C30 7.12439 23.2843 0.900879 15 0.900879C6.71573 0.900879 0 7.12439 0 14.8015C0 22.4786 6.71573 28.7021 15 28.7021Z" fill="#00A38F"></path> <path d="M14.9995 4.8584C14.0118 5.79944 7.23828 12.4222 7.23828 17.581C7.23828 21.2538 10.3207 22.4716 14.9995 25.4953C19.6785 22.4716 22.7609 21.2538 22.7609 17.581C22.7609 12.4222 15.9873 5.79944 14.9995 4.8584ZM14.8298 22.9153C14.5801 22.7599 14.332 22.6059 14.0898 22.4561C10.3532 20.1445 9.40484 19.3637 9.40484 17.581C9.40484 14.7323 12.314 10.7977 14.8298 8.05592V22.9153Z" fill="white"></path> </svg> 