<?xml version="1.0" encoding="UTF-8"?> <svg xmlns="http://www.w3.org/2000/svg" width="282" height="90" viewBox="0 0 282 90" fill="none"> <path d="M157.46 61.13V82.49H168.14V58.49C168.14 51.22 164.57 42.73 153.91 42.73C148.59 42.73 144.54 45.53 141.82 49.73C140.599 47.6005 138.836 45.8316 136.712 44.6023C134.587 43.3731 132.175 42.7271 129.72 42.73C124.38 42.73 119.92 46.79 117.87 49.73H117.71V43.85H107.49V82.53H118.14V61.28C118.14 56.58 120.65 51.84 125.83 51.84C131.47 51.84 132.41 57.03 132.41 59.26V82.49H143.14V61.44C143.14 56.66 145.85 51.84 151.08 51.84C156.14 51.84 157.46 56.27 157.46 61.13Z" fill="black"></path> <path d="M189.03 43.81H178.35V82.5H189.03V43.81Z" fill="black"></path> <path d="M223.54 61.13V82.49H234.22V58.49C234.22 51.22 230.85 42.73 220.22 42.73C214.63 42.73 210.53 46.73 208.41 49.73H208.25V43.85H198V82.53H208.68V61.28C208.68 56.74 211.44 51.84 216.97 51.84C222.14 51.84 223.54 56.49 223.54 61.13Z" fill="black"></path> <path d="M256.87 33H246.35V43.82H239.81V52.36H246.35V69.36C246.35 75.36 247.8 83.36 259.28 83.36C261.577 83.3557 263.858 82.9878 266.04 82.27L265.78 73.91C264.272 74.42 262.692 74.6867 261.1 74.7C257.98 74.7 256.87 72.51 256.87 69.29V52.35H266.21V43.81H256.87V33Z" fill="black"></path> <path d="M45 90C69.8528 90 90 69.8528 90 45C90 20.1472 69.8528 0 45 0C20.1472 0 0 20.1472 0 45C0 69.8528 20.1472 90 45 90Z" fill="white"></path> <path fill-rule="evenodd" clip-rule="evenodd" d="M90 45C90 69.8528 69.8528 90 45 90C20.1472 90 0 69.8528 0 45C0 20.1472 20.1472 0 45 0C69.8528 0 90 20.1472 90 45ZM45 12.5401C41.8319 15.715 21.76 36.4678 21.76 52.67C21.76 62.4395 28.321 66.7119 38.7787 73.5219C40.7234 74.7883 42.8029 76.1424 45 77.636V77.68L45.0323 77.658L45.05 77.67C47.2844 76.1458 49.3985 74.7668 51.3739 73.4784L51.374 73.4783C61.7758 66.6936 68.33 62.4186 68.33 52.67C68.33 36.38 48.01 15.46 45.05 12.49L45.02 12.52L45 12.5V12.5401ZM44.49 22.6383V69.4849L42.32 68.07C31.11 60.77 28.26 58.3 28.26 52.67C28.26 43.6932 36.9523 31.289 44.49 22.6383Z" fill="#00A38F"></path> </svg> 