<?xml version="1.0" encoding="UTF-8"?> <svg xmlns="http://www.w3.org/2000/svg" width="92" height="18" viewBox="0 0 92 18"> <g fill="none" fill-rule="evenodd"> <path fill="#000" d="M73.541 13.184c-1.238 0-1.802-1.056-1.802-2.038 0-.968.564-2.01 1.802-2.01 1.239 0 1.803 1.042 1.803 2.01 0 .982-.564 2.038-1.803 2.038zm0-5.643c-2.161 0-3.729 1.516-3.729 3.605 0 2.162 1.603 3.679 3.729 3.679 2.126 0 3.729-1.532 3.729-3.679 0-2.089-1.568-3.605-3.729-3.605zm-16.727 5.643c-1.146 0-1.83-1.022-1.83-2.01 0-.98.699-2.038 1.83-2.038 1.229 0 1.84 1.042 1.84 2.01 0 1.013-.666 2.038-1.84 2.038zm.373-5.643c-.869 0-1.508.38-2.113.946h-.035V3.945H53.14v10.668h1.816v-.973h.028c.428.703 1.279 1.166 2.162 1.166 1.96 0 3.446-1.539 3.446-3.66 0-2.089-1.469-3.605-3.405-3.605zm31.752 2.839c-.977-.234-1.322-.359-1.322-.755 0-.546.692-.666 1.005-.666.589 0 1.255.352 1.505.686l1.12-1.074c-.518-.651-1.536-1.03-2.611-1.03-1.375 0-2.818.692-2.818 2.236 0 1.326 1.039 1.726 2.056 1.97 1.072.25 1.455.432 1.455.864 0 .636-.722.74-.971.74-.621 0-1.341-.356-1.73-.816l-1.153 1.168c.63.699 1.708 1.119 2.814 1.119 1.857 0 2.958-.885 2.958-2.346 0-1.397-1.348-1.867-2.308-2.096zM52.425 7.735h-2.449l-2.452 2.854h-.042V3.945h-1.899v10.668h1.899V11.22h.042l2.544 3.393h2.499l-2.956-3.759 2.814-3.119zm32.924 0H82.9l-2.452 2.854h-.043V3.945h-1.899v10.668h1.899V11.22h.043l2.544 3.393h2.499l-2.957-3.759 2.815-3.119zm-20.153 5.449c-1.238 0-1.803-1.056-1.803-2.038 0-.968.565-2.01 1.803-2.01s1.802 1.042 1.802 2.01c0 .982-.564 2.038-1.802 2.038zm0-5.643c-2.161 0-3.729 1.516-3.729 3.605 0 2.162 1.603 3.679 3.729 3.679 2.126 0 3.729-1.532 3.729-3.679 0-2.089-1.568-3.605-3.729-3.605zm-33.42 3.965c0 .808-.526 1.678-1.508 1.678-.757 0-1.161-.54-1.161-1.651V7.735h-1.9v4.269c0 1.42.709 2.802 2.604 2.802.894 0 1.643-.703 2.02-1.223h.028v1.03h1.816V7.735h-1.899v3.771zm3.454 3.107h1.899V7.735H35.23v6.878zm-13.293-1.429c-1.174 0-1.842-1.025-1.842-2.038 0-.968.613-2.01 1.842-2.01 1.131 0 1.83 1.058 1.83 2.038 0 .988-.684 2.01-1.83 2.01zm1.844-4.576h-.042c-.268-.296-.995-1.067-2.175-1.067-1.936 0-3.429 1.516-3.429 3.605 0 2.121 1.377 3.66 3.338 3.66.89 0 1.726-.471 2.211-1.02h.028v4.213h1.899V7.735h-1.83v.873zm18.294 4.576c-1.156 0-1.739-1.033-1.739-2.032 0-.999.632-1.988 1.684-1.988.492 0 1.114.247 1.359.594l1.224-1.22c-.593-.624-1.537-.997-2.583-.997-2.129 0-3.674 1.528-3.674 3.633 0 2.139 1.528 3.632 3.715 3.632 1.041 0 2.003-.304 2.574-.918l-1.191-1.277c-.275.335-.852.573-1.369.573z"></path> <path fill="#2CA01C" d="M8 .835a8 8 0 1 1 0 16 8 8 0 0 1 0-16zm-.444 4.889H5.333a3.111 3.111 0 1 0 0 6.222h.444V10.79h-.444a1.957 1.957 0 0 1-1.956-1.955c0-1.078.877-1.956 1.956-1.956h1.068v6.045c0 .638.517 1.155 1.155 1.155V5.724zm.888-2.133v8.355h2.224a3.11 3.11 0 1 0 0-6.222h-.445V6.88h.445c1.078 0 1.955.877 1.955 1.955a1.957 1.957 0 0 1-1.955 1.956H9.599V4.746c0-.638-.517-1.155-1.155-1.155z"></path> </g> </svg> 