<?xml version="1.0" encoding="UTF-8"?> <svg xmlns="http://www.w3.org/2000/svg" width="417" height="89" viewBox="0 0 417 89" fill="none"> <path d="M44.051 88.1032C68.38 88.1032 88.103 68.3801 88.103 44.0514C88.103 19.7225 68.38 0 44.051 0C19.722 0 0 19.7225 0 44.0514C0 68.3801 19.722 88.1032 44.051 88.1032Z" fill="#D52B1E"></path> <path d="M34.2815 60.1157C29.1355 56.465 24.3025 52.5709 19.6435 48.3988C17.9405 52.0494 16.4805 55.9434 15.0195 59.8723C22.3555 66.1999 32.3345 73.2923 39.1835 77.4303C47.9445 54.7613 61.6445 39.8457 74.7865 29.3805C73.0825 25.7298 70.8925 22.5311 67.9365 19.8887C54.0295 30.5974 42.5565 44.2613 34.2815 60.1157Z" fill="white"></path> <path d="M98.9141 45.9628V38.0357H105.866V26.5273H115.638V38.0357H125.582V45.9628H115.638V64.4249C115.638 68.0058 116.474 70.5438 120.85 70.5438C122.172 70.5438 123.945 70.2657 125.062 69.7096L125.411 77.4972C123.671 78.1582 120.994 78.5752 118.802 78.5752C108.27 78.5752 105.866 72.1086 105.866 64.529V45.9975H98.9141V45.9628Z" fill="black"></path> <path d="M167.269 77.7403H157.846V71.3431H157.709C155.969 75.3413 151.244 78.8533 145.368 78.8533C135.041 78.8533 130.693 70.926 130.693 62.79V37.9307H140.602V59.9738C140.602 64.6674 141.684 70.5781 148.046 70.5781C154.408 70.5781 157.325 65.1194 157.325 59.8348V38.0002H167.269V77.7403Z" fill="black"></path> <path d="M186.806 38.0014V44.6074H186.949C189.107 40.0527 193.346 36.8193 198.523 36.8193C199.29 36.8193 200.262 36.8889 200.927 37.0975V46.2068C199.605 45.8591 198.769 45.7895 197.831 45.7895C188.894 45.7895 187.155 53.5776 187.155 56.4634V77.7422H177.211V38.0014H186.771H186.806Z" fill="black"></path> <path d="M215.876 15.1582V43.0423H216.15C218.205 40.4695 222.204 36.8536 229.504 36.8536C240.838 36.8536 248.803 45.9629 248.803 57.7146C248.803 69.4659 241.358 78.9232 229.258 78.9232C223.697 78.9232 218.307 76.3502 215.63 71.8306H215.493V77.8102H206.07V15.1582H215.91H215.876ZM227.244 44.9546C219.944 44.9546 215.561 51.6649 215.561 57.8536C215.561 64.0421 219.978 70.6137 227.244 70.6137C234.962 70.6137 238.681 63.938 238.681 57.7146C238.681 51.491 234.962 44.9546 227.244 44.9546Z" fill="black"></path> <path d="M275.922 36.8545C287.915 36.8545 297.545 45.1989 297.545 57.7155C297.545 70.2324 287.915 78.9243 275.922 78.9243C263.924 78.9243 254.295 70.2324 254.295 57.7155C254.295 45.1989 263.89 36.8545 275.922 36.8545ZM275.922 70.6145C283.775 70.6145 287.425 63.9388 287.425 57.7155C287.425 51.4919 283.775 44.9555 275.922 44.9555C268.06 44.9555 264.41 51.4919 264.41 57.7155C264.41 63.9388 268.06 70.6145 275.922 70.6145Z" fill="black"></path> <path d="M299.875 45.9628V38.0357H306.825V26.5273H316.595V38.0357H326.545V45.9628H316.595V64.4249C316.595 68.0058 317.435 70.5438 321.815 70.5438C323.135 70.5438 324.905 70.2657 326.025 69.7096L326.365 77.4972C324.635 78.1582 321.955 78.5752 319.765 78.5752C309.235 78.5752 306.825 72.1086 306.825 64.529V45.9975H299.875V45.9628Z" fill="black"></path> <path d="M357.557 72.6652H357.277C355.297 76.1772 350.607 78.7152 344.937 78.7152C338.537 78.7152 330.057 75.6552 330.057 66.3724C330.057 54.5163 344.937 52.8823 357.387 52.8823V51.9087C357.387 47.0064 353.247 44.6074 348.277 44.6074C344.067 44.6074 340.007 46.5892 337.457 49.162L332.317 43.1124C336.807 38.9749 343.057 36.8193 349.107 36.8193C363.357 36.8193 366.807 45.5809 366.807 53.5428V77.7072H357.517V72.6652H357.557ZM357.417 59.6273H355.187C348.897 59.6273 340.037 60.3922 340.037 66.2334C340.037 70.0232 343.617 71.2052 346.987 71.2052C353.797 71.2052 357.447 67.3456 357.447 61.018V59.6273H357.417Z" fill="black"></path> <path d="M387.496 56.6372L373.166 38.0361H385.086L393.716 50.3788L402.576 38.0361H414.026L399.766 56.6372L416.006 77.7412H403.936L393.606 63.2779L383.146 77.7412H371.396L387.526 56.6372H387.496Z" fill="black"></path> </svg> 