<?xml version="1.0" encoding="UTF-8"?> <svg xmlns="http://www.w3.org/2000/svg" width="75" height="16" viewBox="0 0 75 16"> <g fill="none" fill-rule="evenodd"> <path fill="#000" d="M63.947 10.864c0 1.019-.576 1.659-1.623 1.659-.389 0-1.084-.117-1.084-.735 0-.664.831-1.073 2.453-1.073h.254v.149zm-1.263-4.158c-1.093 0-2.203.441-2.946 1.129l.974 1.09c.447-.447 1.216-.731 1.834-.731.677 0 1.367.339 1.367 1.148v.121c-1.995.01-4.53.25-4.53 2.299 0 1.506 1.311 2.181 2.61 2.181.811 0 1.511-.462 1.939-.963h.043v.797h1.788V9.619c0-1.088-.4-2.913-3.079-2.913zm-13.231 5.642c-1.239 0-1.803-1.056-1.803-2.038 0-.968.564-2.01 1.803-2.01 1.238 0 1.802 1.042 1.802 2.01 0 .982-.564 2.038-1.802 2.038zm0-5.642c-2.161 0-3.73 1.516-3.73 3.604 0 2.162 1.604 3.679 3.73 3.679s3.729-1.532 3.729-3.679c0-2.088-1.568-3.604-3.729-3.604zm-8.385 5.642c-1.146 0-1.83-1.022-1.83-2.01 0-.98.699-2.038 1.83-2.038 1.229 0 1.84 1.042 1.84 2.01 0 1.013-.666 2.038-1.84 2.038zm.373-5.642c-.868 0-1.508.379-2.112.945h-.036V3.109h-1.899v10.668h1.816v-.972h.029c.428.702 1.279 1.166 2.161 1.166 1.96 0 3.446-1.54 3.446-3.661 0-2.088-1.468-3.604-3.405-3.604zM33.952 7.96h-.028V6.899h-1.829v6.878h1.899v-3.674c0-.017.084-1.68 1.729-1.68.136 0 .372.02.59.075V6.763a3.137 3.137 0 0 0-.545-.057c-.747 0-1.385.612-1.816 1.254zM20.993 4.977h-1.872v1.922H17.96v1.519h1.161v3.026c0 1.061.259 2.488 2.3 2.488.398 0 .902-.081 1.202-.195l-.047-1.487a2.61 2.61 0 0 1-.832.142c-.554 0-.751-.389-.751-.961V8.418h1.659V6.899h-1.659V4.977zm7.59 5.693c0 .808-.527 1.678-1.509 1.678-.757 0-1.161-.54-1.161-1.65V6.899h-1.899v4.269c0 1.42.709 2.803 2.604 2.803.894 0 1.642-.704 2.019-1.223h.029v1.029h1.816V6.899h-1.899v3.771zm42.791-.54l2.47-3.231h-2.212l-1.417 1.973-1.377-1.973h-2.297l2.485 3.232-2.788 3.646h2.267l1.681-2.335 1.667 2.335h2.324l-2.803-3.647zM56.795 4.977h-1.871v1.922h-1.162v1.519h1.162v3.026c0 1.061.258 2.488 2.299 2.488.399 0 .903-.081 1.202-.195l-.046-1.487a2.61 2.61 0 0 1-.832.142c-.555 0-.752-.389-.752-.961V8.418h1.66V6.899h-1.66V4.977z"></path> <path fill="#D52B1E" d="M8 0a8 8 0 1 1 0 16A8 8 0 0 1 8 0zm4.398 3.598a22.414 22.414 0 0 0-6.184 7.335 33.989 33.989 0 0 1-2.648-2.12c-.311.682-.59 1.381-.838 2.095 1.349 1.145 3.153 2.456 4.392 3.194 1.605-4.156 4.109-6.867 6.507-8.76a6.242 6.242 0 0 0-1.229-1.744z"></path> </g> </svg> 